<?xml version="1.0" encoding="utf-8"?>
<!DOCTYPE svg PUBLIC "-//W3C//DTD SVG 1.1//EN" "http://www.w3.org/Graphics/SVG/1.1/DTD/svg11.dtd">
<svg version="1.1" id="Layer_1" xmlns="http://www.w3.org/2000/svg" xmlns:xlink="http://www.w3.org/1999/xlink" x="0px" y="0px"
	 width="64px" height="64px" viewBox="0 0 56.689 56.689" enable-background="new 0 0 56.689 56.689" xml:space="preserve">
<path fill="none" stroke="#533834" stroke-width="2" stroke-linecap="round" stroke-linejoin="round" stroke-miterlimit="10" d="
	M52.104,41.054c0,6.511-10.614,12.288-23.706,12.288S4.692,47.152,4.692,41.054s10.614-0.288,23.706-0.288
	S52.104,34.543,52.104,41.054z"/>
<path fill="none" stroke="#533834" stroke-width="2" stroke-linecap="round" stroke-linejoin="round" stroke-miterlimit="10" d="
	M5.239,37.785c-1.194-5.98,10.352-2.36,23.191-4.923c12.839-2.563,22.029-10.744,23.304-4.359c0.41,2.056-0.273,4.252-1.817,6.371"
	/>
<path fill="none" stroke="#533834" stroke-width="2" stroke-linecap="round" stroke-linejoin="round" stroke-miterlimit="10" d="
	M24.686,4.1c0,0-4.928,4.248-2.719,9.856s0.34,10.536,0.34,10.536"/>
<path fill="none" stroke="#533834" stroke-width="2" stroke-linecap="round" stroke-linejoin="round" stroke-miterlimit="10" d="
	M29.686,4.1c0,0-4.928,4.248-2.719,9.856s0.34,10.536,0.34,10.536"/>
<path fill="none" stroke="#533834" stroke-width="2" stroke-linecap="round" stroke-linejoin="round" stroke-miterlimit="10" d="
	M34.686,4.1c0,0-4.928,4.248-2.719,9.856s0.34,10.536,0.34,10.536"/>
</svg>
