<?xml version="1.0" encoding="utf-8"?>
<!DOCTYPE svg PUBLIC "-//W3C//DTD SVG 1.1//EN" "http://www.w3.org/Graphics/SVG/1.1/DTD/svg11.dtd">
<svg version="1.1" id="Layer_1" xmlns="http://www.w3.org/2000/svg" xmlns:xlink="http://www.w3.org/1999/xlink" x="0px" y="0px"
	 width="64px" height="64px" viewBox="0 0 56.689 56.689" enable-background="new 0 0 56.689 56.689" xml:space="preserve">
<g>
	<path fill="none" stroke="#533834" stroke-width="2" stroke-miterlimit="10" d="M9.297,26.951
		c-0.391-0.587,0.029-1.372,0.736-1.372h36.444c0.706,0,1.127,0.785,0.734,1.372L29.706,52.194
		c-0.702,1.013-2.201,1.013-2.903,0.001L9.297,26.951z"/>
	<path fill="none" stroke="#533834" stroke-width="2" stroke-miterlimit="10" d="M18.538,13.422
		c0.114-5.511,4.619-9.943,10.157-9.943c5.611,0,10.16,4.561,10.16,10.17c0,0.018,0,0,0,0"/>
	<path fill="none" stroke="#533834" stroke-width="2" stroke-miterlimit="10" d="M28.255,16.528c1.855-2.041,4.531-3.32,7.508-3.32
		c1.078,0,2.12,0.167,3.093,0.484c4.098,1.299,7.067,5.142,7.067,9.674c0,0.76-0.08,1.502-0.239,2.209"/>
	<path fill="none" stroke="#533834" stroke-width="2" stroke-miterlimit="10" d="M10.825,25.575
		c-0.159-0.707-0.238-1.449-0.238-2.209c0-4.851,3.402-8.914,7.951-9.921c0.705-0.159,1.447-0.237,2.208-0.237
		c2.977,0,5.652,1.279,7.509,3.32c1.643,1.803,2.649,4.196,2.649,6.838c0,0.07,0,0.133,0,0.203c-0.018,0.69-0.098,1.36-0.237,2.006"
		/>
</g>
</svg>
