<svg xmlns="http://www.w3.org/2000/svg" width="50" height="50" viewBox="-0.5 0.5 50 50"><path fill="#3AA9D7" d="M-.5.5h50v50h-50z"/><g fill="#FFF"><path d="M44.95 41.846c-.21-1.166-.474-2.246-.79-3.242-.32-.996-.748-1.967-1.287-2.914-.538-.943-1.155-1.754-1.852-2.42-.69-.668-1.55-1.2-2.56-1.6-1-.396-2.11-.598-3.33-.598-.18 0-.59.215-1.25.643-.65.43-1.39.907-2.23 1.434-.82.52-1.9 1-3.22 1.43-1.325.43-2.655.64-3.99.64s-2.663-.215-3.99-.646c-1.324-.43-2.4-.904-3.226-1.438-.83-.525-1.57-1.006-2.226-1.436-.657-.427-1.075-.642-1.254-.642-1.216 0-2.326.2-3.33.6-1.008.394-1.86.93-2.556 1.596-.7.668-1.315 1.48-1.853 2.42-.54.95-.965 1.918-1.283 2.916-.31.997-.575 2.077-.784 3.243-.21 1.163-.35 2.25-.417 3.255-.07 1.005-.104 2.1-.104 3.153 0 .784.088 1.244.244 2.244h41.59c.154-1 .24-1.46.24-2.245 0-1.056-.035-2.12-.105-3.125s-.21-2.12-.42-3.285z"/><path d="M24.438 32.984c3.167 0 5.87-1.12 8.113-3.36 2.25-2.242 3.37-4.945 3.37-8.113s-1.12-5.87-3.36-8.11c-2.24-2.24-4.94-3.36-8.11-3.36-3.166 0-5.87 1.12-8.11 3.36-2.24 2.24-3.36 4.95-3.36 8.11s1.12 5.88 3.36 8.12c2.24 2.24 4.945 3.36 8.112 3.36z"/></g></svg>