<?xml version="1.0" encoding="utf-8"?>
<svg version="1.1" id="Layer_1" xmlns="http://www.w3.org/2000/svg" xmlns:xlink="http://www.w3.org/1999/xlink" x="0px" y="0px"
	 viewBox="0 0 300 120" enable-background="new 0 0 300 120" xml:space="preserve">
<g>
	<path fill="#1A1010" d="M34.4,72.5h28.3v3.4H34.4V72.5z"/>
	<path fill="#1A1010" d="M99.8,39.2h-2c-1,0-1.9,0.3-2.7,0.8c1.2,1.5,1.9,3.4,1.9,5.8v4.8c0,2.7-0.8,4.9-2.5,6.4
		c-1.6,1.5-4.1,2.3-7.4,2.4c-2.3,0-3.4,1.1-3.4,3.2c0,1,0.3,1.7,0.9,2.1c0.6,0.4,1.6,0.7,3,0.7h3.5c5.5,0,8.2,2.3,8.2,7V73
		c0,5.1-3.6,7.7-10.9,7.7H86c-4,0-7.2-0.6-9.4-1.9v-4.1c2.6,1.5,5.8,2.2,9.4,2.2h2.2c4.7,0,7.1-1.3,7.1-4v-0.6c0-1.2-0.3-2-0.9-2.6
		c-0.6-0.6-1.8-0.9-3.5-0.9h-3.6c-2.4,0-4.2-0.4-5.5-1.3c-1.3-0.9-1.9-2.2-1.9-3.8v-1c0-1,0.3-1.9,0.9-2.6c0.6-0.7,1.3-1.1,2.2-1.4
		c-4-1.1-5.9-3.9-5.9-8.3v-4.8c0-2.7,0.8-4.9,2.5-6.4c1.7-1.6,4-2.3,7.1-2.3c3.1,0,5.4,0.5,7,1.6c0.8-2.4,2.6-3.6,5.5-3.6h0.9V39.2z
		 M92.7,50.6v-4.8c0-1.7-0.5-3-1.3-3.8c-0.9-0.8-2.4-1.3-4.4-1.3s-3.5,0.4-4.4,1.3c-0.9,0.8-1.3,2.1-1.3,3.8v4.8
		c0,1.7,0.4,3,1.3,3.8c0.9,0.8,2.4,1.3,4.4,1.3s3.5-0.4,4.4-1.3C92.2,53.6,92.7,52.3,92.7,50.6z"/>
	<path fill="#1A1010" d="M112.5,37.3c6.8,0,10.2,2.9,10.2,8.7v25.7h-4.1v-2.5c-2,1.8-4.5,2.7-7.3,2.7c-5.6,0-8.3-2.7-8.3-8.2v-1.9
		c0-4.2,2.4-6.9,7.3-8.3l8.4-2.3V46c0-1.6-0.5-2.8-1.4-3.6c-0.9-0.8-2.7-1.1-5.3-1.1s-5.1,0.4-7.3,1.2v-4
		C106.9,37.7,109.5,37.3,112.5,37.3z M107.1,62v1.8c0,1.6,0.4,2.8,1.1,3.5c0.8,0.8,2.2,1.1,4.3,1.1s4.1-0.8,6-2.3V55l-6.8,1.9
		c-1.8,0.5-3,1.2-3.7,1.9C107.5,59.6,107.1,60.6,107.1,62z"/>
	<path fill="#1A1010" d="M139.5,68.1c2,0,3.9-0.6,5.8-1.9V37.6h4.3v34.1h-4.1v-1.6c-2.3,1.2-4.7,1.7-7.1,1.7c-2.4,0-4.3-0.7-5.8-2.2
		c-1.4-1.5-2.2-3.6-2.2-6.3V37.6h4.3V63C134.7,66.4,136.3,68.1,139.5,68.1z M140.9,28.6h4l-3.6,6.4h-2.8L140.9,28.6z"/>
	<path fill="#1A1010" d="M157.2,46c0-5.8,3.4-8.6,10.1-8.6c2.5,0,4.6,0.3,6.4,0.8v3.9c-1.9-0.5-4-0.8-6.2-0.8
		c-2.2,0-3.8,0.4-4.7,1.2c-0.9,0.8-1.3,2-1.3,3.6v17.3c0,1.7,0.4,2.9,1.3,3.7c0.9,0.8,2.5,1.1,4.8,1.1c2.3,0,4.4-0.3,6.2-1v4
		c-2.2,0.6-4.3,0.8-6.5,0.8c-6.7,0-10.1-2.8-10.1-8.5V46z"/>
	<path fill="#1A1010" d="M180,28.6h4.2V39c2.3-1,4.7-1.5,7-1.5s4.2,0.7,5.7,2c1.5,1.4,2.2,3.3,2.2,5.9v26.3h-4.3V45.8
		c0-2.9-1.5-4.4-4.4-4.4c-2,0-4.1,0.5-6.2,1.5v28.8H180V28.6z"/>
	<path fill="#1A1010" d="M206.5,46.3c0-2.8,0.8-5.1,2.4-6.8c1.6-1.7,4-2.5,7.3-2.5c3.3,0,5.7,0.8,7.3,2.5c1.6,1.7,2.4,3.9,2.4,6.8
		v16.7c0,2.8-0.8,5.1-2.4,6.8c-1.6,1.7-4,2.5-7.3,2.5c-3.3,0-5.7-0.8-7.3-2.5c-1.6-1.7-2.4-3.9-2.4-6.8V46.3z M221.7,46.4
		c0-3.7-1.8-5.6-5.5-5.6c-3.7,0-5.5,1.9-5.5,5.6V63c0,3.8,1.8,5.6,5.5,5.6c3.7,0,5.5-1.9,5.5-5.6V46.4z"/>
	<path fill="#1A1010" d="M240.9,72.5h28.3v3.4h-28.3V72.5z"/>
</g>
<g>
	<path fill="#1A1010" d="M103.9,93.4V97h-1.2v-8.6h2.4c0.5,0,1,0.1,1.4,0.2c0.4,0.1,0.7,0.3,1,0.5c0.3,0.2,0.4,0.5,0.6,0.8
		s0.2,0.6,0.2,1c0,0.3,0,0.6-0.1,0.9c-0.1,0.3-0.2,0.5-0.4,0.7c-0.2,0.2-0.4,0.4-0.7,0.5c-0.3,0.1-0.6,0.3-0.9,0.3
		c0.1,0.1,0.3,0.2,0.4,0.4l2.5,3.4h-1c-0.2,0-0.4-0.1-0.5-0.2l-2.2-3.1c-0.1-0.1-0.1-0.2-0.2-0.2c-0.1,0-0.2-0.1-0.4-0.1H103.9z
		 M103.9,92.6h1.2c0.3,0,0.6,0,0.9-0.1c0.3-0.1,0.5-0.2,0.6-0.3c0.2-0.1,0.3-0.3,0.4-0.5c0.1-0.2,0.1-0.4,0.1-0.7
		c0-0.5-0.2-0.9-0.5-1.2c-0.3-0.3-0.8-0.4-1.5-0.4h-1.3V92.6z"/>
	<path fill="#1A1010" d="M114.1,97H113v-8.6h1.2V97z"/>
	<path fill="#1A1010" d="M123.2,89.7c0,0.1-0.1,0.1-0.1,0.1s-0.1,0-0.2,0c-0.1,0-0.1,0-0.2-0.1c-0.1-0.1-0.2-0.1-0.3-0.2
		c-0.1-0.1-0.3-0.2-0.5-0.2c-0.2-0.1-0.4-0.1-0.7-0.1c-0.3,0-0.5,0-0.7,0.1s-0.4,0.2-0.5,0.3s-0.2,0.3-0.3,0.4
		c-0.1,0.2-0.1,0.3-0.1,0.5c0,0.2,0.1,0.4,0.2,0.6c0.1,0.2,0.3,0.3,0.5,0.4c0.2,0.1,0.4,0.2,0.7,0.3c0.2,0.1,0.5,0.2,0.8,0.3
		c0.3,0.1,0.5,0.2,0.8,0.3s0.5,0.2,0.7,0.4c0.2,0.2,0.3,0.4,0.5,0.6s0.2,0.5,0.2,0.9c0,0.4-0.1,0.7-0.2,1.1
		c-0.1,0.3-0.3,0.6-0.6,0.9c-0.2,0.2-0.5,0.4-0.9,0.6c-0.4,0.1-0.8,0.2-1.2,0.2c-0.6,0-1.1-0.1-1.5-0.3c-0.5-0.2-0.8-0.5-1.2-0.8
		l0.3-0.6c0,0,0.1-0.1,0.1-0.1c0,0,0.1,0,0.2,0c0.1,0,0.2,0,0.3,0.1c0.1,0.1,0.2,0.2,0.4,0.3c0.2,0.1,0.4,0.2,0.6,0.3
		c0.2,0.1,0.5,0.1,0.8,0.1c0.3,0,0.5,0,0.7-0.1c0.2-0.1,0.4-0.2,0.5-0.3c0.1-0.1,0.3-0.3,0.3-0.5c0.1-0.2,0.1-0.4,0.1-0.6
		c0-0.3-0.1-0.5-0.2-0.6c-0.1-0.2-0.3-0.3-0.5-0.4c-0.2-0.1-0.4-0.2-0.7-0.3s-0.5-0.2-0.8-0.2c-0.3-0.1-0.5-0.2-0.8-0.3
		c-0.2-0.1-0.5-0.2-0.7-0.4c-0.2-0.2-0.3-0.4-0.5-0.6c-0.1-0.3-0.2-0.6-0.2-1c0-0.3,0.1-0.6,0.2-0.9c0.1-0.3,0.3-0.5,0.5-0.8
		c0.2-0.2,0.5-0.4,0.8-0.5s0.7-0.2,1.1-0.2c0.5,0,0.9,0.1,1.3,0.2c0.4,0.2,0.7,0.4,1,0.7L123.2,89.7z"/>
	<path fill="#1A1010" d="M133.4,88.4v1h-2.8V97h-1.2v-7.6h-2.8v-1H133.4z"/>
	<path fill="#1A1010" d="M144.5,92.7c0,0.6-0.1,1.2-0.3,1.8c-0.2,0.5-0.5,1-0.9,1.4s-0.8,0.7-1.3,0.9c-0.5,0.2-1.1,0.3-1.7,0.3
		s-1.2-0.1-1.7-0.3c-0.5-0.2-1-0.5-1.3-0.9s-0.7-0.9-0.9-1.4c-0.2-0.5-0.3-1.1-0.3-1.8c0-0.6,0.1-1.2,0.3-1.8c0.2-0.5,0.5-1,0.9-1.4
		s0.8-0.7,1.3-0.9c0.5-0.2,1.1-0.3,1.7-0.3s1.2,0.1,1.7,0.3c0.5,0.2,1,0.5,1.3,0.9s0.7,0.9,0.9,1.4S144.5,92.1,144.5,92.7z
		 M143.3,92.7c0-0.5-0.1-1-0.2-1.4c-0.1-0.4-0.3-0.8-0.6-1.1c-0.3-0.3-0.6-0.5-1-0.7s-0.8-0.2-1.3-0.2c-0.5,0-0.9,0.1-1.3,0.2
		s-0.7,0.4-1,0.7c-0.3,0.3-0.5,0.6-0.6,1.1c-0.1,0.4-0.2,0.9-0.2,1.4s0.1,1,0.2,1.4c0.1,0.4,0.3,0.8,0.6,1.1c0.3,0.3,0.6,0.5,1,0.7
		c0.4,0.2,0.8,0.2,1.3,0.2c0.5,0,0.9-0.1,1.3-0.2c0.4-0.2,0.7-0.4,1-0.7c0.3-0.3,0.5-0.6,0.6-1.1C143.2,93.7,143.3,93.2,143.3,92.7z
		"/>
	<path fill="#1A1010" d="M149.7,93.4V97h-1.2v-8.6h2.4c0.5,0,1,0.1,1.4,0.2c0.4,0.1,0.7,0.3,1,0.5c0.3,0.2,0.4,0.5,0.6,0.8
		s0.2,0.6,0.2,1c0,0.3,0,0.6-0.1,0.9c-0.1,0.3-0.2,0.5-0.4,0.7c-0.2,0.2-0.4,0.4-0.7,0.5c-0.3,0.1-0.6,0.3-0.9,0.3
		c0.1,0.1,0.3,0.2,0.4,0.4l2.5,3.4h-1c-0.2,0-0.4-0.1-0.5-0.2l-2.2-3.1c-0.1-0.1-0.1-0.2-0.2-0.2c-0.1,0-0.2-0.1-0.4-0.1H149.7z
		 M149.7,92.6h1.2c0.3,0,0.6,0,0.9-0.1c0.3-0.1,0.5-0.2,0.6-0.3c0.2-0.1,0.3-0.3,0.4-0.5c0.1-0.2,0.1-0.4,0.1-0.7
		c0-0.5-0.2-0.9-0.5-1.2c-0.3-0.3-0.8-0.4-1.5-0.4h-1.3V92.6z"/>
	<path fill="#1A1010" d="M165.7,97h-0.9c-0.1,0-0.2,0-0.3-0.1c-0.1-0.1-0.1-0.1-0.1-0.2l-0.8-2.1h-3.9l-0.8,2.1
		c0,0.1-0.1,0.1-0.1,0.2s-0.2,0.1-0.3,0.1h-0.9l3.4-8.6h1.2L165.7,97z M160,93.8h3.2l-1.4-3.5c-0.1-0.2-0.2-0.5-0.3-0.8
		c0,0.2-0.1,0.3-0.1,0.5s-0.1,0.3-0.1,0.4L160,93.8z"/>
	<path fill="#1A1010" d="M170,88.4c0,0,0.1,0.1,0.2,0.2l5,6.5c0-0.1,0-0.2,0-0.3c0-0.1,0-0.2,0-0.3v-6.1h1V97h-0.6
		c-0.1,0-0.2,0-0.2,0c-0.1,0-0.1-0.1-0.2-0.2l-5-6.5c0,0.1,0,0.2,0,0.3c0,0.1,0,0.2,0,0.3V97h-1v-8.6h0.6
		C169.8,88.4,169.9,88.4,170,88.4z"/>
	<path fill="#1A1010" d="M186.5,88.4v1h-2.8V97h-1.2v-7.6h-2.8v-1H186.5z"/>
	<path fill="#1A1010" d="M195.4,88.4v0.9h-4.1v2.9h3.3v0.9h-3.3v2.9h4.1V97h-5.3v-8.6H195.4z"/>
</g>
</svg>