<?xml version="1.0" encoding="utf-8"?>
<svg version="1.1" id="Layer_1" xmlns="http://www.w3.org/2000/svg" xmlns:xlink="http://www.w3.org/1999/xlink" x="0px" y="0px"
	 viewBox="0 0 170 65" enable-background="new 0 0 170 65" xml:space="preserve">
<g>
	<path fill="#FFFFFF" d="M22.4,40h15.1v1.8H22.4V40z"/>
	<path fill="#FFFFFF" d="M57.2,22.2h-1.1c-0.6,0-1,0.1-1.4,0.4c0.7,0.8,1,1.8,1,3.1v2.6c0,1.5-0.4,2.6-1.3,3.4
		c-0.9,0.8-2.2,1.2-4,1.3c-1.2,0-1.8,0.6-1.8,1.7c0,0.5,0.2,0.9,0.5,1.1c0.3,0.2,0.9,0.4,1.6,0.4h1.9c2.9,0,4.4,1.2,4.4,3.7v0.4
		c0,2.7-1.9,4.1-5.8,4.1h-1.3c-2.2,0-3.8-0.3-5-1v-2.2c1.4,0.8,3.1,1.2,5,1.2H51c2.5,0,3.8-0.7,3.8-2.1v-0.3c0-0.6-0.2-1.1-0.5-1.4
		s-0.9-0.5-1.9-0.5h-1.9c-1.3,0-2.3-0.2-2.9-0.7c-0.7-0.5-1-1.2-1-2v-0.5c0-0.6,0.2-1,0.5-1.4c0.3-0.4,0.7-0.6,1.2-0.7
		c-2.1-0.6-3.2-2.1-3.2-4.4v-2.6c0-1.5,0.4-2.6,1.3-3.4c0.9-0.8,2.1-1.2,3.8-1.2c1.6,0,2.9,0.3,3.7,0.9c0.4-1.3,1.4-1.9,2.9-1.9h0.5
		V22.2z M53.4,28.3v-2.6c0-0.9-0.2-1.6-0.7-2c-0.5-0.4-1.3-0.7-2.4-0.7s-1.9,0.2-2.4,0.7c-0.5,0.4-0.7,1.1-0.7,2v2.6
		c0,0.9,0.2,1.6,0.7,2c0.5,0.4,1.3,0.7,2.4,0.7s1.9-0.2,2.4-0.7C53.2,29.9,53.4,29.2,53.4,28.3z"/>
	<path fill="#FFFFFF" d="M64,21.2c3.6,0,5.4,1.5,5.4,4.6v13.7h-2.2v-1.3c-1.1,1-2.4,1.4-3.9,1.4c-3,0-4.4-1.5-4.4-4.4v-1
		c0-2.2,1.3-3.7,3.9-4.4l4.5-1.2v-2.8c0-0.9-0.3-1.5-0.7-1.9c-0.5-0.4-1.4-0.6-2.8-0.6S61,23.5,59.8,24v-2.1
		C61,21.4,62.4,21.2,64,21.2z M61.1,34.4v1c0,0.9,0.2,1.5,0.6,1.9s1.2,0.6,2.3,0.6s2.2-0.4,3.2-1.2v-6l-3.6,1c-1,0.3-1.6,0.6-2,1
		C61.3,33.1,61.1,33.6,61.1,34.4z"/>
	<path fill="#FFFFFF" d="M78.4,37.6c1.1,0,2.1-0.3,3.1-1V21.4h2.3v18.2h-2.2v-0.9c-1.2,0.6-2.5,0.9-3.8,0.9c-1.3,0-2.3-0.4-3.1-1.2
		c-0.8-0.8-1.2-1.9-1.2-3.4V21.4h2.3v13.5C75.8,36.7,76.7,37.6,78.4,37.6z M79.2,16.5h2.1L79.4,20h-1.5L79.2,16.5z"/>
	<path fill="#FFFFFF" d="M87.9,25.8c0-3.1,1.8-4.6,5.4-4.6c1.3,0,2.5,0.1,3.4,0.4v2.1c-1-0.3-2.1-0.4-3.3-0.4c-1.2,0-2,0.2-2.5,0.6
		s-0.7,1.1-0.7,1.9v9.2c0,0.9,0.2,1.5,0.7,2s1.3,0.6,2.5,0.6s2.3-0.2,3.3-0.5v2.1c-1.2,0.3-2.3,0.4-3.5,0.4c-3.6,0-5.4-1.5-5.4-4.5
		V25.8z"/>
	<path fill="#FFFFFF" d="M100,16.5h2.2v5.6c1.2-0.5,2.5-0.8,3.7-0.8s2.3,0.4,3,1.1c0.8,0.7,1.2,1.8,1.2,3.1v14h-2.3V25.7
		c0-1.6-0.8-2.3-2.3-2.3c-1.1,0-2.2,0.3-3.3,0.8v15.4H100V16.5z"/>
	<path fill="#FFFFFF" d="M114.1,26c0-1.5,0.4-2.7,1.3-3.6s2.2-1.3,3.9-1.3c1.7,0,3,0.4,3.9,1.3s1.3,2.1,1.3,3.6v8.9
		c0,1.5-0.4,2.7-1.3,3.6c-0.9,0.9-2.2,1.3-3.9,1.3c-1.8,0-3.1-0.4-3.9-1.3c-0.9-0.9-1.3-2.1-1.3-3.6V26z M122.3,26c0-2-1-3-2.9-3
		c-2,0-2.9,1-2.9,3v8.9c0,2,1,3,2.9,3c2,0,2.9-1,2.9-3V26z"/>
	<path fill="#FFFFFF" d="M132.5,40h15.1v1.8h-15.1V40z"/>
</g>
</svg>